<svg width="78" height="16" viewBox="0 0 78 16" fill="none" xmlns="http://www.w3.org/2000/svg">
<path d="M59.2817 6.02667L56.2567 5.74667L55.0754 2.78C54.8629 2.24 54.1379 2.24 53.9254 2.78L52.7442 5.75333L49.7254 6.02667C49.1754 6.07333 48.9504 6.80667 49.3692 7.19333L51.6629 9.31333L50.9754 12.46C50.8504 13.0333 51.4317 13.4867 51.9067 13.18L54.5004 11.5133L57.0942 13.1867C57.5692 13.4933 58.1504 13.04 58.0254 12.4667L57.3379 9.31333L59.6317 7.19333C60.0504 6.80667 59.8317 6.07333 59.2817 6.02667Z" fill="#F9D706"/>
<path d="M44.0996 6.02667L40.8729 5.74667L39.6129 2.78C39.3862 2.24 38.6129 2.24 38.3862 2.78L37.1262 5.75333L33.9062 6.02667C33.3196 6.07333 33.0796 6.80667 33.5262 7.19333L35.9729 9.31333L35.2396 12.46C35.1062 13.0333 35.7262 13.4867 36.2329 13.18L38.9996 11.5133L41.7662 13.1867C42.2729 13.4933 42.8929 13.04 42.7596 12.4667L42.0262 9.31333L44.4729 7.19333C44.9196 6.80667 44.6862 6.07333 44.0996 6.02667Z" fill="#F9D706"/>
<path d="M13.0996 6.02667L9.87289 5.74667L8.61289 2.78C8.38623 2.24 7.61289 2.24 7.38623 2.78L6.12623 5.75333L2.90623 6.02667C2.31956 6.07333 2.07956 6.80667 2.52623 7.19333L4.97289 9.31333L4.23956 12.46C4.10623 13.0333 4.72623 13.4867 5.23289 13.18L7.99956 11.5133L10.7662 13.1867C11.2729 13.4933 11.8929 13.04 11.7596 12.4667L11.0262 9.31333L13.4729 7.19333C13.9196 6.80667 13.6862 6.07333 13.0996 6.02667Z" fill="#F9D706"/>
<path d="M28.2817 6.02667L25.2567 5.74667L24.0754 2.78C23.8629 2.24 23.1379 2.24 22.9254 2.78L21.7442 5.75333L18.7254 6.02667C18.1754 6.07333 17.9504 6.80667 18.3692 7.19333L20.6629 9.31333L19.9754 12.46C19.8504 13.0333 20.4317 13.4867 20.9067 13.18L23.5004 11.5133L26.0942 13.1867C26.5692 13.4933 27.1504 13.04 27.0254 12.4667L26.3379 9.31333L28.6317 7.19333C29.0504 6.80667 28.8317 6.07333 28.2817 6.02667Z" fill="#F9D706"/>
<path d="M75.4794 6.17315L72.2528 5.89315L70.9928 2.92648C70.7661 2.38648 69.9928 2.38648 69.7661 2.92648L68.5061 5.89982L65.2861 6.17315C64.6994 6.21982 64.4594 6.95315 64.9061 7.33982L67.3528 9.45982L66.6194 12.6065C66.4861 13.1798 67.1061 13.6332 67.6128 13.3265L70.3794 11.6598L73.1461 13.3332C73.6528 13.6398 74.2728 13.1865 74.1394 12.6132L73.4061 9.45982L75.8528 7.33982C76.2994 6.95315 76.0661 6.21982 75.4794 6.17315Z" fill="#F9D706"/>
</svg>
